<?xml version="1.0" encoding="UTF-8" standalone="no"?><!-- Generator: Gravit.io --><svg xmlns="http://www.w3.org/2000/svg" xmlns:xlink="http://www.w3.org/1999/xlink" style="isolation:isolate" viewBox="0 0 30 38" width="30pt" height="38pt"><defs><clipPath id="_clipPath_K5lp6Kq9F1Tj6MM6y9KA6ORwQDRD5eSG"><rect width="30" height="38"/></clipPath></defs><g clip-path="url(#_clipPath_K5lp6Kq9F1Tj6MM6y9KA6ORwQDRD5eSG)"><g><path d=" M 15 35.806 C 12.423 33.769 1.803 24.817 1.803 15.144 C 1.803 7.856 7.712 1.947 15 1.947 C 22.288 1.947 28.197 7.856 28.197 15.144 C 28.197 24.817 17.577 33.769 15 35.806 Z " fill="rgb(255,255,255)"/><path d=" M 15 2.895 C 21.763 2.9 27.244 8.381 27.249 15.144 C 27.249 23.784 18.212 31.96 15 34.594 C 11.788 31.969 2.751 23.813 2.751 15.144 C 2.756 8.381 8.237 2.9 15 2.895 M 15 1 C 7.188 1 0.856 7.333 0.856 15.144 C 0.856 26.712 15 37 15 37 C 15 37 29.144 26.712 29.144 15.144 C 29.144 7.333 22.812 1 15 1 Z " fill="rgb(4,127,140)"/><g><path d=" M 21.139 20.071 L 20.457 20.071 L 19.566 17.342 L 10.5 17.342 L 9.553 20.071 L 8.861 20.071 C 8.484 20.071 8.179 20.376 8.179 20.753 C 8.179 21.129 8.484 21.435 8.861 21.435 L 21.177 21.435 C 21.554 21.435 21.859 21.129 21.859 20.753 C 21.859 20.376 21.554 20.071 21.177 20.071 L 21.139 20.071 Z " fill="rgb(203,203,203)"/><path d=" M 17.937 12.567 L 12.063 12.567 L 11.182 15.296 L 18.818 15.296 L 17.937 12.567 Z " fill="rgb(203,203,203)"/><path d=" M 16.364 7.793 L 13.636 7.793 L 12.745 10.521 L 17.255 10.521 L 16.364 7.793 Z " fill="rgb(203,203,203)"/></g></g></g></svg>