<?xml version="1.0" encoding="UTF-8" standalone="no"?><!-- Generator: Gravit.io --><svg xmlns="http://www.w3.org/2000/svg" xmlns:xlink="http://www.w3.org/1999/xlink" style="isolation:isolate" viewBox="0 0 30 38" width="30pt" height="38pt"><defs><clipPath id="_clipPath_p0QWeKa8NcsXmAUS9v2nm17hbJQKl0qN"><rect width="30" height="38"/></clipPath></defs><g clip-path="url(#_clipPath_p0QWeKa8NcsXmAUS9v2nm17hbJQKl0qN)"><g><path d=" M 15 35.806 C 12.423 33.769 1.803 24.817 1.803 15.144 C 1.803 7.856 7.712 1.947 15 1.947 C 22.288 1.947 28.197 7.856 28.197 15.144 C 28.197 24.817 17.577 33.769 15 35.806 Z " fill="rgb(255,255,255)"/><path d=" M 15 2.895 C 21.763 2.9 27.244 8.381 27.249 15.144 C 27.249 23.784 18.212 31.96 15 34.594 C 11.788 31.969 2.751 23.813 2.751 15.144 C 2.756 8.381 8.237 2.9 15 2.895 M 15 1 C 7.188 1 0.856 7.333 0.856 15.144 C 0.856 26.712 15 37 15 37 C 15 37 29.144 26.712 29.144 15.144 C 29.144 7.333 22.812 1 15 1 Z " fill="rgb(4,127,140)"/></g><circle vector-effect="non-scaling-stroke" cx="15.000000144698122" cy="14.09803921568627" r="6.999999855301882" fill="rgb(252,212,52)"/></g></svg>